<svg width="279" height="108" viewBox="0 0 279 108" fill="none" xmlns="http://www.w3.org/2000/svg">
<rect width="279" height="108" fill="#D9D9D9"/>
<g filter="url(#filter0_d_206_81)">
<mask id="path-2-outside-1_206_81" maskUnits="userSpaceOnUse" x="16" y="21" width="247" height="68" fill="black">
<rect fill="white" x="16" y="21" width="247" height="68"/>
<path d="M38.86 83V35H22.86V27H70.86V35H54.86V83H38.86ZM84.62 83V75H76.62V67H84.62V59H116.62V51H84.62V43H124.62V51H132.62V83H84.62ZM92.62 75H116.62V67H92.62V75ZM138.38 83V43H186.38V51H194.38V83H178.38V51H154.38V83H138.38ZM224.14 83V75H216.14V67H208.14V59H200.14V27H216.14V51H224.14V59H232.14V51H240.14V27H256.14V59H248.14V67H240.14V75H232.14V83H224.14Z"/>
</mask>
<path d="M38.86 83V35H22.86V27H70.86V35H54.86V83H38.86ZM84.62 83V75H76.62V67H84.62V59H116.62V51H84.62V43H124.62V51H132.62V83H84.62ZM92.62 75H116.62V67H92.62V75ZM138.38 83V43H186.38V51H194.38V83H178.38V51H154.38V83H138.38ZM224.14 83V75H216.14V67H208.14V59H200.14V27H216.14V51H224.14V59H232.14V51H240.14V27H256.14V59H248.14V67H240.14V75H232.14V83H224.14Z" fill="#2245C5"/>
<path d="M38.86 83H32.86V89H38.86V83ZM38.86 35H44.86V29H38.86V35ZM22.86 35H16.86V41H22.86V35ZM22.86 27V21H16.86V27H22.86ZM70.86 27H76.86V21H70.86V27ZM70.86 35V41H76.86V35H70.86ZM54.86 35V29H48.86V35H54.86ZM54.86 83V89H60.86V83H54.86ZM44.86 83V35H32.86V83H44.86ZM38.86 29H22.86V41H38.86V29ZM28.86 35V27H16.86V35H28.86ZM22.86 33H70.86V21H22.86V33ZM64.86 27V35H76.86V27H64.86ZM70.86 29H54.86V41H70.86V29ZM48.86 35V83H60.86V35H48.86ZM54.86 77H38.86V89H54.86V77ZM84.62 83H78.62V89H84.62V83ZM84.62 75H90.62V69H84.62V75ZM76.62 75H70.62V81H76.62V75ZM76.62 67V61H70.62V67H76.62ZM84.62 67V73H90.62V67H84.62ZM84.62 59V53H78.62V59H84.62ZM116.62 59V65H122.62V59H116.62ZM116.62 51H122.62V45H116.62V51ZM84.62 51H78.62V57H84.62V51ZM84.62 43V37H78.62V43H84.62ZM124.62 43H130.62V37H124.62V43ZM124.62 51H118.62V57H124.62V51ZM132.62 51H138.62V45H132.62V51ZM132.62 83V89H138.62V83H132.62ZM92.62 75H86.62V81H92.62V75ZM116.62 75V81H122.62V75H116.62ZM116.62 67H122.62V61H116.62V67ZM92.62 67V61H86.62V67H92.62ZM90.62 83V75H78.62V83H90.62ZM84.62 69H76.62V81H84.62V69ZM82.62 75V67H70.62V75H82.62ZM76.62 73H84.62V61H76.62V73ZM90.62 67V59H78.62V67H90.62ZM84.62 65H116.62V53H84.62V65ZM122.62 59V51H110.62V59H122.62ZM116.62 45H84.62V57H116.62V45ZM90.62 51V43H78.62V51H90.62ZM84.62 49H124.62V37H84.62V49ZM118.62 43V51H130.62V43H118.62ZM124.62 57H132.62V45H124.62V57ZM126.62 51V83H138.62V51H126.62ZM132.62 77H84.62V89H132.62V77ZM92.62 81H116.62V69H92.62V81ZM122.62 75V67H110.62V75H122.62ZM116.62 61H92.62V73H116.62V61ZM86.62 67V75H98.62V67H86.62ZM138.38 83H132.38V89H138.38V83ZM138.38 43V37H132.38V43H138.38ZM186.38 43H192.38V37H186.38V43ZM186.38 51H180.38V57H186.38V51ZM194.38 51H200.38V45H194.38V51ZM194.38 83V89H200.38V83H194.38ZM178.38 83H172.38V89H178.38V83ZM178.38 51H184.38V45H178.38V51ZM154.38 51V45H148.38V51H154.38ZM154.38 83V89H160.38V83H154.38ZM144.38 83V43H132.38V83H144.38ZM138.38 49H186.38V37H138.38V49ZM180.38 43V51H192.38V43H180.38ZM186.38 57H194.38V45H186.38V57ZM188.38 51V83H200.38V51H188.38ZM194.38 77H178.38V89H194.38V77ZM184.38 83V51H172.38V83H184.38ZM178.38 45H154.38V57H178.38V45ZM148.38 51V83H160.38V51H148.38ZM154.38 77H138.38V89H154.38V77ZM224.14 83H218.14V89H224.14V83ZM224.14 75H230.14V69H224.14V75ZM216.14 75H210.14V81H216.14V75ZM216.14 67H222.14V61H216.14V67ZM208.14 67H202.14V73H208.14V67ZM208.14 59H214.14V53H208.14V59ZM200.14 59H194.14V65H200.14V59ZM200.14 27V21H194.14V27H200.14ZM216.14 27H222.14V21H216.14V27ZM216.14 51H210.14V57H216.14V51ZM224.14 51H230.14V45H224.14V51ZM224.14 59H218.14V65H224.14V59ZM232.14 59V65H238.14V59H232.14ZM232.14 51V45H226.14V51H232.14ZM240.14 51V57H246.14V51H240.14ZM240.14 27V21H234.14V27H240.14ZM256.14 27H262.14V21H256.14V27ZM256.14 59V65H262.14V59H256.14ZM248.14 59V53H242.14V59H248.14ZM248.14 67V73H254.14V67H248.14ZM240.14 67V61H234.14V67H240.14ZM240.14 75V81H246.14V75H240.14ZM232.14 75V69H226.14V75H232.14ZM232.14 83V89H238.14V83H232.14ZM230.14 83V75H218.14V83H230.14ZM224.14 69H216.14V81H224.14V69ZM222.14 75V67H210.14V75H222.14ZM216.14 61H208.14V73H216.14V61ZM214.14 67V59H202.14V67H214.14ZM208.14 53H200.14V65H208.14V53ZM206.14 59V27H194.14V59H206.14ZM200.14 33H216.14V21H200.14V33ZM210.14 27V51H222.14V27H210.14ZM216.14 57H224.14V45H216.14V57ZM218.14 51V59H230.14V51H218.14ZM224.14 65H232.14V53H224.14V65ZM238.14 59V51H226.14V59H238.14ZM232.14 57H240.14V45H232.14V57ZM246.14 51V27H234.14V51H246.14ZM240.14 33H256.14V21H240.14V33ZM250.14 27V59H262.14V27H250.14ZM256.14 53H248.14V65H256.14V53ZM242.14 59V67H254.14V59H242.14ZM248.14 61H240.14V73H248.14V61ZM234.14 67V75H246.14V67H234.14ZM240.14 69H232.14V81H240.14V69ZM226.14 75V83H238.14V75H226.14ZM232.14 77H224.14V89H232.14V77Z" fill="#1E3445" mask="url(#path-2-outside-1_206_81)"/>
</g>
<defs>
<filter id="filter0_d_206_81" x="22.86" y="27" width="237.28" height="60" filterUnits="userSpaceOnUse" color-interpolation-filters="sRGB">
<feFlood flood-opacity="0" result="BackgroundImageFix"/>
<feColorMatrix in="SourceAlpha" type="matrix" values="0 0 0 0 0 0 0 0 0 0 0 0 0 0 0 0 0 0 127 0" result="hardAlpha"/>
<feOffset dx="4" dy="4"/>
<feComposite in2="hardAlpha" operator="out"/>
<feColorMatrix type="matrix" values="0 0 0 0 0.117647 0 0 0 0 0.203922 0 0 0 0 0.270588 0 0 0 1 0"/>
<feBlend mode="normal" in2="BackgroundImageFix" result="effect1_dropShadow_206_81"/>
<feBlend mode="normal" in="SourceGraphic" in2="effect1_dropShadow_206_81" result="shape"/>
</filter>
</defs>
</svg>
