<svg width="101" height="48" viewBox="0 0 101 48" fill="none" xmlns="http://www.w3.org/2000/svg">
<g style="mix-blend-mode:screen" filter="url(#filter0_dd_208_83)">
<mask id="path-1-outside-1_208_83" maskUnits="userSpaceOnUse" x="4" y="10" width="93" height="25" fill="black">
<rect fill="white" x="4" y="10" width="93" height="25"/>
<path d="M12.76 33V15H6.76V12H24.76V15H18.76V33H12.76ZM29.92 33V30H26.92V27H29.92V24H41.92V21H29.92V18H44.92V21H47.92V33H29.92ZM32.92 30H41.92V27H32.92V30ZM50.08 33V18H68.08V21H71.08V33H65.08V21H56.08V33H50.08ZM82.24 33V30H79.24V27H76.24V24H73.24V12H79.24V21H82.24V24H85.24V21H88.24V12H94.24V24H91.24V27H88.24V30H85.24V33H82.24Z"/>
</mask>
<path d="M12.76 33V15H6.76V12H24.76V15H18.76V33H12.76ZM29.92 33V30H26.92V27H29.92V24H41.92V21H29.92V18H44.92V21H47.92V33H29.92ZM32.92 30H41.92V27H32.92V30ZM50.08 33V18H68.08V21H71.08V33H65.08V21H56.08V33H50.08ZM82.24 33V30H79.24V27H76.24V24H73.24V12H79.24V21H82.24V24H85.24V21H88.24V12H94.24V24H91.24V27H88.24V30H85.24V33H82.24Z" fill="#2245C5"/>
<path d="M12.76 33H10.76V35H12.76V33ZM12.76 15H14.76V13H12.76V15ZM6.76 15H4.76V17H6.76V15ZM6.76 12V10H4.76V12H6.76ZM24.76 12H26.76V10H24.76V12ZM24.76 15V17H26.76V15H24.76ZM18.76 15V13H16.76V15H18.76ZM18.76 33V35H20.76V33H18.76ZM14.76 33V15H10.76V33H14.76ZM12.76 13H6.76V17H12.76V13ZM8.76 15V12H4.76V15H8.76ZM6.76 14H24.76V10H6.76V14ZM22.76 12V15H26.76V12H22.76ZM24.76 13H18.76V17H24.76V13ZM16.76 15V33H20.76V15H16.76ZM18.76 31H12.76V35H18.76V31ZM29.92 33H27.92V35H29.92V33ZM29.92 30H31.92V28H29.92V30ZM26.92 30H24.92V32H26.92V30ZM26.92 27V25H24.92V27H26.92ZM29.92 27V29H31.92V27H29.92ZM29.92 24V22H27.92V24H29.92ZM41.92 24V26H43.92V24H41.92ZM41.92 21H43.92V19H41.92V21ZM29.92 21H27.92V23H29.92V21ZM29.92 18V16H27.92V18H29.92ZM44.92 18H46.92V16H44.92V18ZM44.92 21H42.92V23H44.92V21ZM47.92 21H49.92V19H47.92V21ZM47.92 33V35H49.92V33H47.92ZM32.92 30H30.92V32H32.92V30ZM41.92 30V32H43.92V30H41.92ZM41.92 27H43.92V25H41.92V27ZM32.92 27V25H30.92V27H32.92ZM31.92 33V30H27.92V33H31.92ZM29.92 28H26.92V32H29.92V28ZM28.92 30V27H24.92V30H28.92ZM26.92 29H29.92V25H26.92V29ZM31.92 27V24H27.92V27H31.92ZM29.92 26H41.92V22H29.92V26ZM43.92 24V21H39.92V24H43.92ZM41.92 19H29.92V23H41.92V19ZM31.92 21V18H27.92V21H31.92ZM29.92 20H44.92V16H29.92V20ZM42.92 18V21H46.92V18H42.92ZM44.92 23H47.92V19H44.92V23ZM45.92 21V33H49.92V21H45.92ZM47.92 31H29.92V35H47.92V31ZM32.92 32H41.92V28H32.92V32ZM43.92 30V27H39.92V30H43.92ZM41.92 25H32.92V29H41.92V25ZM30.92 27V30H34.92V27H30.92ZM50.08 33H48.08V35H50.08V33ZM50.08 18V16H48.08V18H50.08ZM68.08 18H70.08V16H68.08V18ZM68.08 21H66.08V23H68.08V21ZM71.08 21H73.08V19H71.08V21ZM71.08 33V35H73.08V33H71.08ZM65.08 33H63.08V35H65.08V33ZM65.08 21H67.08V19H65.08V21ZM56.08 21V19H54.08V21H56.08ZM56.08 33V35H58.08V33H56.08ZM52.08 33V18H48.08V33H52.08ZM50.08 20H68.08V16H50.08V20ZM66.08 18V21H70.08V18H66.08ZM68.08 23H71.08V19H68.08V23ZM69.08 21V33H73.08V21H69.08ZM71.08 31H65.08V35H71.08V31ZM67.08 33V21H63.08V33H67.08ZM65.08 19H56.08V23H65.08V19ZM54.08 21V33H58.08V21H54.08ZM56.08 31H50.08V35H56.08V31ZM82.24 33H80.24V35H82.24V33ZM82.24 30H84.24V28H82.24V30ZM79.24 30H77.24V32H79.24V30ZM79.24 27H81.24V25H79.24V27ZM76.24 27H74.24V29H76.24V27ZM76.24 24H78.24V22H76.24V24ZM73.24 24H71.24V26H73.24V24ZM73.24 12V10H71.24V12H73.24ZM79.24 12H81.24V10H79.24V12ZM79.24 21H77.24V23H79.24V21ZM82.24 21H84.24V19H82.24V21ZM82.24 24H80.24V26H82.24V24ZM85.24 24V26H87.24V24H85.24ZM85.24 21V19H83.24V21H85.24ZM88.24 21V23H90.24V21H88.24ZM88.24 12V10H86.24V12H88.24ZM94.24 12H96.24V10H94.24V12ZM94.24 24V26H96.24V24H94.24ZM91.24 24V22H89.24V24H91.24ZM91.24 27V29H93.24V27H91.24ZM88.24 27V25H86.24V27H88.24ZM88.24 30V32H90.24V30H88.24ZM85.24 30V28H83.24V30H85.24ZM85.24 33V35H87.24V33H85.24ZM84.24 33V30H80.24V33H84.24ZM82.24 28H79.24V32H82.24V28ZM81.24 30V27H77.24V30H81.24ZM79.24 25H76.24V29H79.24V25ZM78.24 27V24H74.24V27H78.24ZM76.24 22H73.24V26H76.24V22ZM75.24 24V12H71.24V24H75.24ZM73.24 14H79.24V10H73.24V14ZM77.24 12V21H81.24V12H77.24ZM79.24 23H82.24V19H79.24V23ZM80.24 21V24H84.24V21H80.24ZM82.24 26H85.24V22H82.24V26ZM87.24 24V21H83.24V24H87.24ZM85.24 23H88.24V19H85.24V23ZM90.24 21V12H86.24V21H90.24ZM88.24 14H94.24V10H88.24V14ZM92.24 12V24H96.24V12H92.24ZM94.24 22H91.24V26H94.24V22ZM89.24 24V27H93.24V24H89.24ZM91.24 25H88.24V29H91.24V25ZM86.24 27V30H90.24V27H86.24ZM88.24 28H85.24V32H88.24V28ZM83.24 30V33H87.24V30H83.24ZM85.24 31H82.24V35H85.24V31Z" fill="#0D1A24" mask="url(#path-1-outside-1_208_83)"/>
</g>
<defs>
<filter id="filter0_dd_208_83" x="2.76" y="12" width="95.48" height="29" filterUnits="userSpaceOnUse" color-interpolation-filters="sRGB">
<feFlood flood-opacity="0" result="BackgroundImageFix"/>
<feColorMatrix in="SourceAlpha" type="matrix" values="0 0 0 0 0 0 0 0 0 0 0 0 0 0 0 0 0 0 127 0" result="hardAlpha"/>
<feOffset dx="2" dy="2"/>
<feComposite in2="hardAlpha" operator="out"/>
<feColorMatrix type="matrix" values="0 0 0 0 0.117647 0 0 0 0 0.203922 0 0 0 0 0.270588 0 0 0 1 0"/>
<feBlend mode="normal" in2="BackgroundImageFix" result="effect1_dropShadow_208_83"/>
<feColorMatrix in="SourceAlpha" type="matrix" values="0 0 0 0 0 0 0 0 0 0 0 0 0 0 0 0 0 0 127 0" result="hardAlpha"/>
<feOffset dy="4"/>
<feGaussianBlur stdDeviation="2"/>
<feComposite in2="hardAlpha" operator="out"/>
<feColorMatrix type="matrix" values="0 0 0 0 0 0 0 0 0 0 0 0 0 0 0 0 0 0 0.25 0"/>
<feBlend mode="normal" in2="effect1_dropShadow_208_83" result="effect2_dropShadow_208_83"/>
<feBlend mode="normal" in="SourceGraphic" in2="effect2_dropShadow_208_83" result="shape"/>
</filter>
</defs>
</svg>
